<svg width="41" height="23" viewBox="0 0 41 23" fill="none" xmlns="http://www.w3.org/2000/svg">
<path d="M33 19C33 20.1046 32.1046 21 31 21C29.8954 21 29 20.1046 29 19C29 17.8954 29.8954 17 31 17C32.1046 17 33 17.8954 33 19Z" fill="white"/>
<path fill-rule="evenodd" clip-rule="evenodd" d="M31 21.5C32.3807 21.5 33.5 20.3807 33.5 19C33.5 17.6193 32.3807 16.5 31 16.5C29.6193 16.5 28.5 17.6193 28.5 19C28.5 20.3807 29.6193 21.5 31 21.5ZM31 23C33.2091 23 35 21.2091 35 19C35 16.7909 33.2091 15 31 15C28.7909 15 27 16.7909 27 19C27 21.2091 28.7909 23 31 23Z" fill="white"/>
<path d="M11 19C11 20.1046 10.1046 21 9 21C7.89543 21 7 20.1046 7 19C7 17.8954 7.89543 17 9 17C10.1046 17 11 17.8954 11 19Z" fill="white"/>
<path fill-rule="evenodd" clip-rule="evenodd" d="M9 21.5C10.3807 21.5 11.5 20.3807 11.5 19C11.5 17.6193 10.3807 16.5 9 16.5C7.61929 16.5 6.5 17.6193 6.5 19C6.5 20.3807 7.61929 21.5 9 21.5ZM9 23C11.2091 23 13 21.2091 13 19C13 16.7909 11.2091 15 9 15C6.79086 15 5 16.7909 5 19C5 21.2091 6.79086 23 9 23Z" fill="white"/>
<path fill-rule="evenodd" clip-rule="evenodd" d="M27.3741 19C27.3741 17.641 28.5126 15 31.3741 15C34.2357 15 35.3741 17.641 35.3741 19L40 19C40 19 39.8741 12.1829 39.8741 10C39.8742 7.81718 36.8294 0.999983 33 1.00001C30.9168 1.00002 28.9247 0.98628 26.9055 0.972351C21.148 0.932635 15.1702 0.8914 6.23186 1.16319C0.158887 1.34785 1.50002 19 1.50002 19H5.37415C5.37416 17.641 6.51267 15 9.37415 15C12.2356 15 13.3741 17.641 13.3741 19H27.3741ZM34 1.50003C36.3509 1.50003 40.0186 9.00003 39.5 9.00003H32.4252H27V1.50003H34Z" fill="white"/>
<path d="M27.3741 19V19.5H27.8741V19H27.3741ZM35.3741 19H34.8741V19.5L35.3741 19.5L35.3741 19ZM40 19L40 19.5L40.5093 19.5L40.4999 18.9908L40 19ZM33 1.00001L33 1.50001L33 1.00001ZM26.9055 0.972351L26.902 1.47234L26.9055 0.972351ZM6.23186 1.16319L6.21666 0.663417L6.23186 1.16319ZM1.50002 19L1.00146 19.0379L1.03657 19.5H1.50002V19ZM5.37415 19V19.5H5.87414L5.87415 19L5.37415 19ZM13.3741 19H12.8741V19.5H13.3741V19ZM27 9.00003H26.5V9.50003H27V9.00003ZM27 1.50003V1.00003H26.5V1.50003H27ZM31.3741 14.5C29.7673 14.5 28.6287 15.2499 27.9056 16.1844C27.1969 17.1004 26.8741 18.2076 26.8741 19H27.8741C27.8741 18.4335 28.1206 17.5407 28.6965 16.7964C29.258 16.0707 30.1195 15.5 31.3741 15.5V14.5ZM35.8741 19C35.8741 18.2076 35.5514 17.1004 34.8427 16.1844C34.1195 15.2499 32.981 14.5 31.3741 14.5V15.5C32.6288 15.5 33.4903 16.0707 34.0518 16.7964C34.6277 17.5407 34.8741 18.4335 34.8741 19H35.8741ZM40 18.5L35.3741 18.5L35.3741 19.5L40 19.5L40 18.5ZM39.3741 10C39.3741 11.0963 39.4057 13.3506 39.4371 15.3266C39.4529 16.3155 39.4686 17.2361 39.4804 17.9095C39.4863 18.2462 39.4912 18.5211 39.4947 18.7119C39.4964 18.8073 39.4977 18.8816 39.4987 18.9321C39.4991 18.9573 39.4995 18.9766 39.4997 18.9896C39.4998 18.9961 39.4999 19.001 39.5 19.0043C39.5 19.006 39.5 19.0072 39.5001 19.008C39.5001 19.0084 39.5001 19.0088 39.5001 19.009C39.5001 19.0091 39.5001 19.0091 39.5001 19.0092C39.5001 19.0093 39.5001 19.0093 40 19C40.4999 18.9908 40.4999 18.9908 40.4999 18.9907C40.4999 18.9907 40.4999 18.9906 40.4999 18.9905C40.4999 18.9903 40.4999 18.99 40.4999 18.9896C40.4999 18.9888 40.4999 18.9875 40.4998 18.9859C40.4998 18.9826 40.4997 18.9777 40.4996 18.9712C40.4993 18.9583 40.499 18.939 40.4985 18.9138C40.4976 18.8634 40.4962 18.7891 40.4945 18.6938C40.4911 18.5032 40.4862 18.2285 40.4803 17.892C40.4685 17.219 40.4527 16.2989 40.437 15.3107C40.4055 13.3323 40.3741 11.0867 40.3741 10L39.3741 10ZM33 1.50001C33.8041 1.5 34.604 1.85791 35.3733 2.48648C36.142 3.11453 36.8478 3.98756 37.4495 4.94708C38.0498 5.90429 38.5349 6.92927 38.8689 7.84431C39.2075 8.77227 39.3741 9.54216 39.3741 10L40.3741 10C40.3741 9.3665 40.1602 8.46567 39.8083 7.50147C39.4517 6.52436 38.9363 5.43576 38.2967 4.41581C37.6586 3.39818 36.8852 2.43048 36.006 1.7121C35.1274 0.994233 34.1106 0.500001 33 0.500008L33 1.50001ZM26.902 1.47234C28.921 1.48627 30.9148 1.50002 33 1.50001L33 0.500008C30.9188 0.500022 28.9284 0.486293 26.9089 0.472363L26.902 1.47234ZM6.24705 1.66296C15.1758 1.39146 21.146 1.43263 26.902 1.47234L26.9089 0.472363C21.15 0.432637 15.1647 0.391338 6.21666 0.663417L6.24705 1.66296ZM1.50002 19C1.99858 18.9622 1.99859 18.9622 1.99858 18.9621C1.99857 18.962 1.99856 18.9619 1.99855 18.9617C1.99852 18.9613 1.99846 18.9606 1.99839 18.9596C1.99825 18.9577 1.99803 18.9547 1.99774 18.9507C1.99715 18.9427 1.99627 18.9305 1.99512 18.9143C1.99284 18.8818 1.98951 18.8332 1.98541 18.7696C1.9772 18.6423 1.96588 18.4547 1.9536 18.2155C1.92902 17.7371 1.90058 17.0523 1.88527 16.2297C1.85463 14.5827 1.87684 12.3909 2.08631 10.1984C2.29664 7.99699 2.69237 5.8353 3.38926 4.22688C4.09181 2.60541 5.0247 1.70012 6.24705 1.66296L6.21666 0.663417C4.40252 0.718579 3.2257 2.08906 2.47169 3.82932C1.71202 5.58262 1.30435 7.8686 1.09084 10.1033C0.876477 12.347 0.854404 14.5797 0.885445 16.2483C0.900982 17.0834 0.929868 17.7792 0.954913 18.2668C0.967438 18.5107 0.979008 18.7026 0.987478 18.8339C0.991714 18.8996 0.995175 18.9502 0.997594 18.9845C0.998803 19.0017 0.999752 19.0148 1.00041 19.0238C1.00074 19.0282 1.00099 19.0317 1.00117 19.034C1.00125 19.0352 1.00132 19.0361 1.00137 19.0368C1.0014 19.0371 1.00142 19.0374 1.00143 19.0375C1.00145 19.0378 1.00146 19.0379 1.50002 19ZM5.37415 18.5H1.50002V19.5H5.37415V18.5ZM9.37415 14.5C7.7673 14.5 6.62877 15.2499 5.90565 16.1844C5.19692 17.1004 4.87415 18.2076 4.87415 19L5.87415 19C5.87415 18.4335 6.12065 17.5407 6.69654 16.7964C7.25806 16.0707 8.11951 15.5 9.37415 15.5V14.5ZM13.8741 19C13.8741 18.2076 13.5514 17.1004 12.8426 16.1844C12.1195 15.2499 10.981 14.5 9.37415 14.5V15.5C10.6288 15.5 11.4902 16.0707 12.0518 16.7964C12.6276 17.5407 12.8741 18.4335 12.8741 19H13.8741ZM27.3741 18.5H13.3741V19.5H27.3741V18.5ZM39.5 9.50003C39.7037 9.50003 39.8765 9.38959 39.9695 9.22865C40.0403 9.10603 40.0483 8.98439 40.0494 8.92538C40.0519 8.79676 40.022 8.65983 39.9918 8.54771C39.9269 8.3068 39.8054 7.9872 39.6481 7.62773C39.3305 6.90186 38.8364 5.94425 38.2527 4.98929C37.6705 4.03672 36.987 3.06661 36.287 2.32798C35.9371 1.95875 35.5711 1.63453 35.1998 1.39972C34.8322 1.16722 34.424 1.00003 34 1.00003V2.00003C34.1637 2.00003 34.3844 2.06723 34.6653 2.24488C34.9426 2.42023 35.2447 2.68195 35.5612 3.01584C36.1939 3.68346 36.8357 4.58835 37.3994 5.51078C37.9618 6.43082 38.4342 7.34821 38.7319 8.02859C38.8823 8.37224 38.9806 8.63858 39.0262 8.80783C39.0513 8.90079 39.0493 8.92499 39.0496 8.90623C39.0497 8.90215 39.0491 8.82263 39.1036 8.72839C39.1802 8.59583 39.3287 8.50003 39.5 8.50003V9.50003ZM32.4252 9.50003H39.5V8.50003H32.4252V9.50003ZM27 9.50003H32.4252V8.50003H27V9.50003ZM26.5 1.50003V9.00003H27.5V1.50003H26.5ZM34 1.00003H27V2.00003H34V1.00003Z" fill="white"/>
<path d="M19 4H20V12H19V4Z" fill="#DD5928"/>
<path d="M20 4H21V12H20V4Z" fill="#DD5928"/>
<path d="M16 7H24V9H16V7Z" fill="#DD5928"/>
</svg>
